{"accessors":[{"bufferView":0,"componentType":5125,"count":63774,"name":"index","type":"SCALAR"},{"bufferView":1,"componentType":5126,"count":13669,"max":[0.2971999943256378,0.12549999356269836,0.2736000120639801],"min":[-0.2646999955177307,-0.011300000362098217,-0.24469999969005585],"name":"position","type":"VEC3"},{"bufferView":1,"byteOffset":12,"componentType":5126,"count":13669,"name":"texture_cooridinate","type":"VEC2"}],"asset":{"version":"2.0"},"bufferViews":[{"buffer":0,"byteLength":255096,"name":"indices"},{"buffer":0,"byteLength":273380,"byteOffset":255096,"byteStride":20,"name":"vertices"},{"buffer":1,"byteLength":1160471}],"buffers":[{"byteLength":528476,"name":"geometry","uri":"data:application/octet-stream;base64,"},{"byteLength":1160471,"name":"diffuse_texture","uri":"data:application/octet-stream;base64,"}],"extensionsUsed":["KHR_materials_unlit"],"images":[{"bufferView":2,"mimeType":"image/jpeg"}],"materials":[{"extensions":{"KHR_materials_unlit":{}},"name":"material_0","pbrMetallicRoughness":{"baseColorTexture":{"index":0}}}],"meshes":[{"primitives":[{"attributes":{"POSITION":1,"TEXCOORD_0":2},"indices":0,"material":0,"mode":4}]}],"nodes":[{"mesh":0}],"samplers":[{"wrapR":10497,"wrapS":10497,"wrapT":10497}],"scene":0,"scenes":[{"nodes":[0]}],"textures":[{"sampler":0,"source":0}]}
