{"accessors":[{"bufferView":0,"componentType":5125,"count":61188,"name":"index","type":"SCALAR"},{"bufferView":1,"componentType":5126,"count":13009,"max":[0.25609999895095825,0.18279999494552612,0.2508000135421753],"min":[-0.26100000739097595,0.005100000184029341,-0.27869999408721924],"name":"position","type":"VEC3"},{"bufferView":1,"byteOffset":12,"componentType":5126,"count":13009,"name":"texture_cooridinate","type":"VEC2"}],"asset":{"version":"2.0"},"bufferViews":[{"buffer":0,"byteLength":244752,"name":"indices"},{"buffer":0,"byteLength":260180,"byteOffset":244752,"byteStride":20,"name":"vertices"},{"buffer":1,"byteLength":1416164}],"buffers":[{"byteLength":504932,"name":"geometry","uri":"data:application/octet-stream;base64,"},{"byteLength":1416164,"name":"diffuse_texture","uri":"data:application/octet-stream;base64,"}],"extensionsUsed":["KHR_materials_unlit"],"images":[{"bufferView":2,"mimeType":"image/jpeg"}],"materials":[{"extensions":{"KHR_materials_unlit":{}},"name":"material_0","pbrMetallicRoughness":{"baseColorTexture":{"index":0}}}],"meshes":[{"primitives":[{"attributes":{"POSITION":1,"TEXCOORD_0":2},"indices":0,"material":0,"mode":4}]}],"nodes":[{"mesh":0}],"samplers":[{"wrapR":10497,"wrapS":10497,"wrapT":10497}],"scene":0,"scenes":[{"nodes":[0]}],"textures":[{"sampler":0,"source":0}]}
