{"accessors":[{"bufferView":0,"componentType":5125,"count":81933,"name":"index","type":"SCALAR"},{"bufferView":1,"componentType":5126,"count":16184,"max":[0.287200003862381,0.16859999299049377,0.12880000472068787],"min":[-0.23479999601840973,-0.010999999940395355,-0.11699999868869781],"name":"position","type":"VEC3"},{"bufferView":1,"byteOffset":12,"componentType":5126,"count":16184,"name":"texture_cooridinate","type":"VEC2"}],"asset":{"version":"2.0"},"bufferViews":[{"buffer":0,"byteLength":327732,"name":"indices"},{"buffer":0,"byteLength":323680,"byteOffset":327732,"byteStride":20,"name":"vertices"},{"buffer":1,"byteLength":2196726}],"buffers":[{"byteLength":651412,"name":"geometry","uri":"data:application/octet-stream;base64,"},{"byteLength":2196726,"name":"diffuse_texture","uri":"data:application/octet-stream;base64,"}],"extensionsUsed":["KHR_materials_unlit"],"images":[{"bufferView":2,"mimeType":"image/jpeg"}],"materials":[{"extensions":{"KHR_materials_unlit":{}},"name":"material_0","pbrMetallicRoughness":{"baseColorTexture":{"index":0}}}],"meshes":[{"primitives":[{"attributes":{"POSITION":1,"TEXCOORD_0":2},"indices":0,"material":0,"mode":4}]}],"nodes":[{"mesh":0}],"samplers":[{"wrapR":10497,"wrapS":10497,"wrapT":10497}],"scene":0,"scenes":[{"nodes":[0]}],"textures":[{"sampler":0,"source":0}]}
