{
	"asset":{
		"generator":"Khronos glTF Blender I/O v4.0.44",
		"version":"2.0"
	},
	"scene":0,
	"scenes":[
		{
			"name":"Scene",
			"nodes":[
				0,
				1
			]
		}
	],
	"nodes":[
		{
			"mesh":0,
			"name":"tree",
			"scale":[
				0.08810199052095413,
				0.08810199052095413,
				0.08810199052095413
			],
			"translation":[
				0.9684239625930786,
				0.1628921627998352,
				0
			]
		},
		{
			"mesh":1,
			"name":"Groundplane"
		}
	],
	"meshes":[
		{
			"name":"tree",
			"primitives":[
				{
					"attributes":{
						"POSITION":0,
						"NORMAL":1,
						"TEXCOORD_0":2
					},
					"indices":3
				}
			]
		},
		{
			"name":"Landscape.002",
			"primitives":[
				{
					"attributes":{
						"POSITION":4,
						"NORMAL":5
					},
					"indices":6
				}
			]
		}
	],
	"accessors":[
		{
			"bufferView":0,
			"componentType":5126,
			"count":25128,
			"max":[
				6.705024719238281,
				16.16468620300293,
				7.232454776763916
			],
			"min":[
				-6.009082317352295,
				0,
				-5.715045928955078
			],
			"type":"VEC3"
		},
		{
			"bufferView":1,
			"componentType":5126,
			"count":25128,
			"type":"VEC3"
		},
		{
			"bufferView":2,
			"componentType":5126,
			"count":25128,
			"type":"VEC2"
		},
		{
			"bufferView":3,
			"componentType":5123,
			"count":119232,
			"type":"SCALAR"
		},
		{
			"bufferView":4,
			"componentType":5126,
			"count":16384,
			"max":[
				5,
				0.38459962606430054,
				5
			],
			"min":[
				-5,
				0,
				-5
			],
			"type":"VEC3"
		},
		{
			"bufferView":5,
			"componentType":5126,
			"count":16384,
			"type":"VEC3"
		},
		{
			"bufferView":6,
			"componentType":5123,
			"count":96774,
			"type":"SCALAR"
		}
	],
	"bufferViews":[
		{
			"buffer":0,
			"byteLength":301536,
			"byteOffset":0,
			"target":34962
		},
		{
			"buffer":0,
			"byteLength":301536,
			"byteOffset":301536,
			"target":34962
		},
		{
			"buffer":0,
			"byteLength":201024,
			"byteOffset":603072,
			"target":34962
		},
		{
			"buffer":0,
			"byteLength":238464,
			"byteOffset":804096,
			"target":34963
		},
		{
			"buffer":0,
			"byteLength":196608,
			"byteOffset":1042560,
			"target":34962
		},
		{
			"buffer":0,
			"byteLength":196608,
			"byteOffset":1239168,
			"target":34962
		},
		{
			"buffer":0,
			"byteLength":193548,
			"byteOffset":1435776,
			"target":34963
		}
	],
	"buffers":[
		{
			"byteLength":1629324,
			"uri":"level1.bin"
		}
	]
}
