{"accessors":[{"bufferView":0,"componentType":5125,"count":58968,"name":"index","type":"SCALAR"},{"bufferView":1,"componentType":5126,"count":12581,"max":[0.1729000061750412,0.09269999712705612,0.16920000314712524],"min":[-0.17669999599456787,-0.004999999888241291,-0.1889999955892563],"name":"position","type":"VEC3"},{"bufferView":1,"byteOffset":12,"componentType":5126,"count":12581,"name":"texture_cooridinate","type":"VEC2"}],"asset":{"version":"2.0"},"bufferViews":[{"buffer":0,"byteLength":235872,"name":"indices"},{"buffer":0,"byteLength":251620,"byteOffset":235872,"byteStride":20,"name":"vertices"},{"buffer":1,"byteLength":1433251}],"buffers":[{"byteLength":487492,"name":"geometry","uri":"data:application/octet-stream;base64,"},{"byteLength":1433251,"name":"diffuse_texture","uri":"data:application/octet-stream;base64,"}],"extensionsUsed":["KHR_materials_unlit"],"images":[{"bufferView":2,"mimeType":"image/jpeg"}],"materials":[{"extensions":{"KHR_materials_unlit":{}},"name":"material_0","pbrMetallicRoughness":{"baseColorTexture":{"index":0}}}],"meshes":[{"primitives":[{"attributes":{"POSITION":1,"TEXCOORD_0":2},"indices":0,"material":0,"mode":4}]}],"nodes":[{"mesh":0}],"samplers":[{"wrapR":10497,"wrapS":10497,"wrapT":10497}],"scene":0,"scenes":[{"nodes":[0]}],"textures":[{"sampler":0,"source":0}]}
