{"accessors":[{"bufferView":0,"componentType":5125,"count":141153,"name":"index","type":"SCALAR"},{"bufferView":1,"componentType":5126,"count":26507,"max":[0.08720000088214874,0.41200000047683716,0.0812000036239624],"min":[-0.08209999650716782,-0.00279999990016222,-0.08720000088214874],"name":"position","type":"VEC3"},{"bufferView":1,"byteOffset":12,"componentType":5126,"count":26507,"name":"texture_cooridinate","type":"VEC2"}],"asset":{"version":"2.0"},"bufferViews":[{"buffer":0,"byteLength":564612,"name":"indices"},{"buffer":0,"byteLength":530140,"byteOffset":564612,"byteStride":20,"name":"vertices"},{"buffer":1,"byteLength":1625984}],"buffers":[{"byteLength":1094752,"name":"geometry","uri":"data:application/octet-stream;base64,"},{"byteLength":1625984,"name":"diffuse_texture","uri":"data:application/octet-stream;base64,"}],"extensionsUsed":["KHR_materials_unlit"],"images":[{"bufferView":2,"mimeType":"image/jpeg"}],"materials":[{"extensions":{"KHR_materials_unlit":{}},"name":"material_0","pbrMetallicRoughness":{"baseColorTexture":{"index":0}}}],"meshes":[{"primitives":[{"attributes":{"POSITION":1,"TEXCOORD_0":2},"indices":0,"material":0,"mode":4}]}],"nodes":[{"mesh":0}],"samplers":[{"wrapR":10497,"wrapS":10497,"wrapT":10497}],"scene":0,"scenes":[{"nodes":[0]}],"textures":[{"sampler":0,"source":0}]}
