{"accessors":[{"bufferView":0,"componentType":5125,"count":72255,"name":"index","type":"SCALAR"},{"bufferView":1,"componentType":5126,"count":13623,"max":[0.09480000287294388,0.07199999690055847,0.07989999651908875],"min":[-0.11069999635219574,-0.004699999932199717,-0.16169999539852142],"name":"position","type":"VEC3"},{"bufferView":1,"byteOffset":12,"componentType":5126,"count":13623,"name":"texture_cooridinate","type":"VEC2"}],"asset":{"version":"2.0"},"bufferViews":[{"buffer":0,"byteLength":289020,"name":"indices"},{"buffer":0,"byteLength":272460,"byteOffset":289020,"byteStride":20,"name":"vertices"},{"buffer":1,"byteLength":1825869}],"buffers":[{"byteLength":561480,"name":"geometry","uri":"data:application/octet-stream;base64,"},{"byteLength":1825869,"name":"diffuse_texture","uri":"data:application/octet-stream;base64,"}],"extensionsUsed":["KHR_materials_unlit"],"images":[{"bufferView":2,"mimeType":"image/jpeg"}],"materials":[{"extensions":{"KHR_materials_unlit":{}},"name":"material_0","pbrMetallicRoughness":{"baseColorTexture":{"index":0}}}],"meshes":[{"primitives":[{"attributes":{"POSITION":1,"TEXCOORD_0":2},"indices":0,"material":0,"mode":4}]}],"nodes":[{"mesh":0}],"samplers":[{"wrapR":10497,"wrapS":10497,"wrapT":10497}],"scene":0,"scenes":[{"nodes":[0]}],"textures":[{"sampler":0,"source":0}]}
